<svg width="330" height="134" viewBox="0 0 330 134" class="css-1j8o68f">
  <defs id="SvgjsDefs1001"></defs>
  <g id="SvgjsG1007" featurekey="symbolContainer" transform="matrix(1,0,0,1,0,0)" fill="#ffb900">
    <rect xmlns="http://www.w3.org/2000/svg" width="110" height="134" rx="10" ry="10"></rect>
  </g>
  <g id="SvgjsG1008" featurekey="monogramFeature-0"
    transform="matrix(2.133843127746875,0,0,2.133843127746875,20.00000623216112,-14.52249334121747)"
    fill="#ffffff">
    <path
      d="M0.72 16.560000000000002 l0 0 c0 -0.06 30.72 -0.48 30.84 -0.36 c0.36 0.36 0.66 2.28 0.84 5.16 c-1.08 1.68 -5.94 8.1 -15.66 8.34 c-2.64 0.06 -2.58 4.08 0.12 4.02 c7.62 -0.18 12.78 -3.6 15.84 -6.54 c0.18 6.72 0.12 15.24 -0.12 21.72 c-3 -2.88 -8.22 -6.24 -15.72 -6.42 c-2.7 -0.06 -2.76 3.9 -0.12 4.02 c9.42 0.24 14.34 6.36 15.6 8.22 c-0.18 2.52 -0.42 4.14 -0.66 4.38 c-1.2 1.08 -30.36 1.38 -31.14 0 c-1.2 -2.22 -0.06 -42.48 0.18 -42.54 z"></path>
  </g>
  <g id="SvgjsG1009" featurekey="nameFeature-0"
    transform="matrix(1.1913271037823037,0,0,1.1913271037823037,127.1408154053777,31.704074754612357)"
    fill="#111111">
    <path
      d="M8.24 34.64 l11.84 0 l0 5.36 l-12.64 0 l-5.04 0 l0 -28 l5.84 0 l11.48 0 l0 5.36 l-11.48 0 l0 5.92 l8.68 0 l0 5.28 l-8.68 0 l0 6.08 z M39.32 19.2 l5.72 0 l0 20.8 l-5.72 0 l0 -2.56 c-0.12 0.84 -2.16 2.96 -5.76 2.96 c-4.76 0 -10.28 -3.44 -10.28 -10.84 c0 -7.16 5.52 -10.72 10.28 -10.72 c3.6 0 5.64 2.24 5.76 2.68 l0 -2.32 z M34.36 35.32 c2.8 0 5.24 -1.92 5.24 -5.76 c0 -3.72 -2.44 -5.64 -5.24 -5.64 c-2.88 0 -5.52 1.96 -5.52 5.64 c0 3.8 2.64 5.76 5.52 5.76 z M59.160000000000004 25.439999999999998 c-0.64 -1.48 -1.56 -2.04 -2.68 -2.04 c-1.04 0 -2 0.64 -2 1.56 c0 0.88 0.56 1.44 1.68 1.84 l2.52 0.92 c3.04 1.08 6 2.2 6 6.24 c0 4.16 -4.12 6.52 -8.32 6.52 c-3.8 0 -7.4 -2.24 -8.24 -5.88 l4.52 -1.4 c0.52 1.4 1.64 2.72 3.72 2.72 c1.48 0 2.6 -0.96 2.6 -2 c0 -0.68 -0.48 -1.28 -1.72 -1.76 l-2.4 -0.84 c-4.08 -1.48 -5.96 -3.6 -5.96 -6.44 c0 -3.76 3.48 -6.04 7.36 -6.04 c3.92 0 6.52 2.12 7.72 5.36 z M82.96000000000001 19.12 l5.72 0 l-12.72 28.48 l-5.72 0 l3.8 -8.32 l-9 -20.16 l5.72 0 l6.08 14 z M97.92 34.64 l11.84 0 l0 5.36 l-12.64 0 l-5.04 0 l0 -28 l5.84 0 l11.48 0 l0 5.36 l-11.48 0 l0 5.92 l8.68 0 l0 5.28 l-8.68 0 l0 6.08 z M129 19.2 l5.72 0 l0 20.8 l-5.72 0 l0 -2.56 c-0.12 0.84 -2.16 2.96 -5.76 2.96 c-4.76 0 -10.28 -3.44 -10.28 -10.84 c0 -7.16 5.52 -10.72 10.28 -10.72 c3.6 0 5.64 2.24 5.76 2.68 l0 -2.32 z M124.04 35.32 c2.8 0 5.24 -1.92 5.24 -5.76 c0 -3.72 -2.44 -5.64 -5.24 -5.64 c-2.88 0 -5.52 1.96 -5.52 5.64 c0 3.8 2.64 5.76 5.52 5.76 z M148.36 35.2 c1.08 0 1.88 -0.12 2.76 -0.44 l0 4.8 c-0.88 0.4 -2.24 0.68 -4.24 0.68 c-3.24 0 -5.96 -1.12 -5.96 -7 l0 -9.32 l-2.92 0 l0 -4.72 l2.92 0 l0 -4.88 l5.72 0 l0 4.88 l4.44 0 l0 4.72 l-4.44 0 l0 9.28 c0 0.96 0.28 2 1.72 2 z M164.76000000000002 25.439999999999998 c-0.64 -1.48 -1.56 -2.04 -2.68 -2.04 c-1.04 0 -2 0.64 -2 1.56 c0 0.88 0.56 1.44 1.68 1.84 l2.52 0.92 c3.04 1.08 6 2.2 6 6.24 c0 4.16 -4.12 6.52 -8.32 6.52 c-3.8 0 -7.4 -2.24 -8.24 -5.88 l4.52 -1.4 c0.52 1.4 1.64 2.72 3.72 2.72 c1.48 0 2.6 -0.96 2.6 -2 c0 -0.68 -0.48 -1.28 -1.72 -1.76 l-2.4 -0.84 c-4.08 -1.48 -5.96 -3.6 -5.96 -6.44 c0 -3.76 3.48 -6.04 7.36 -6.04 c3.92 0 6.52 2.12 7.72 5.36 z"></path>
  </g>
</svg>
